<svg width="58" height="58" viewBox="0 0 58 58" fill="none" xmlns="http://www.w3.org/2000/svg">
<path d="M19.9378 13.896C18.947 13.896 18.1253 13.0743 18.1253 12.0835V4.8335C18.1253 3.84266 18.947 3.021 19.9378 3.021C20.9287 3.021 21.7503 3.84266 21.7503 4.8335V12.0835C21.7503 13.0743 20.9287 13.896 19.9378 13.896Z" fill="url(#paint0_linear_10_5504)"/>
<path d="M19.9378 13.896C18.947 13.896 18.1253 13.0743 18.1253 12.0835V4.8335C18.1253 3.84266 18.947 3.021 19.9378 3.021C20.9287 3.021 21.7503 3.84266 21.7503 4.8335V12.0835C21.7503 13.0743 20.9287 13.896 19.9378 13.896Z" fill="url(#paint1_radial_10_5504)" fill-opacity="0.75"/>
<path d="M38.0628 13.896C37.072 13.896 36.2503 13.0743 36.2503 12.0835V4.8335C36.2503 3.84266 37.072 3.021 38.0628 3.021C39.0537 3.021 39.8753 3.84266 39.8753 4.8335V12.0835C39.8753 13.0743 39.0537 13.896 38.0628 13.896Z" fill="url(#paint2_linear_10_5504)"/>
<path d="M38.0628 13.896C37.072 13.896 36.2503 13.0743 36.2503 12.0835V4.8335C36.2503 3.84266 37.072 3.021 38.0628 3.021C39.0537 3.021 39.8753 3.84266 39.8753 4.8335V12.0835C39.8753 13.0743 39.0537 13.896 38.0628 13.896Z" fill="url(#paint3_radial_10_5504)" fill-opacity="0.75"/>
<path d="M47.2945 10.8752C45.6995 9.691 43.4037 10.8268 43.4037 12.8327V13.0743C43.4037 15.9018 41.3737 18.5118 38.5462 18.8018C35.2837 19.1402 32.5287 16.5785 32.5287 13.3885V10.8752C32.5287 9.546 31.4412 8.4585 30.112 8.4585H27.8887C26.5595 8.4585 25.472 9.546 25.472 10.8752V13.3885C25.472 15.2977 24.4812 16.9893 22.9828 17.9318C22.7653 18.0768 22.5237 18.1977 22.282 18.3185C22.0645 18.4393 21.8228 18.536 21.557 18.6085C21.267 18.7052 20.9528 18.7777 20.6145 18.8018C20.2278 18.8502 19.8412 18.8502 19.4545 18.8018C19.1162 18.7777 18.802 18.7052 18.512 18.6085C18.2703 18.536 18.0287 18.4393 17.787 18.3185C17.5453 18.1977 17.3037 18.0768 17.0862 17.9318C15.5637 16.8685 14.597 15.0318 14.597 13.0743V12.8327C14.597 10.9718 12.6153 9.86016 11.0445 10.6577C11.0203 10.6818 10.9962 10.6818 10.972 10.706C10.8753 10.7543 10.8028 10.8027 10.7062 10.8752C10.6337 10.9477 10.537 10.996 10.4645 11.0685C9.78783 11.6002 9.18366 12.2043 8.67616 12.8568C8.41033 13.1468 8.19283 13.461 7.99949 13.7752C7.97533 13.7993 7.95116 13.8235 7.92699 13.8718C7.70949 14.186 7.51616 14.5485 7.34699 14.8868C7.29866 14.9352 7.27449 14.9593 7.27449 15.0077C7.12949 15.2977 6.98449 15.5877 6.88783 15.9018C6.81533 16.0227 6.79116 16.1193 6.74283 16.2402C6.59783 16.6027 6.50116 16.9652 6.40449 17.3277C6.30783 17.666 6.23533 18.0285 6.18699 18.391C6.13866 18.6568 6.11449 18.9227 6.09033 19.2127C6.06616 19.551 6.04199 19.8893 6.04199 20.2277V41.3977C6.04199 47.8985 11.3103 53.1668 17.8112 53.1668H40.1895C46.6903 53.1668 51.9587 47.8985 51.9587 41.3977V20.2277C51.9587 16.3852 50.122 13.026 47.2945 10.8752Z" fill="url(#paint4_linear_10_5504)"/>
<path d="M47.2945 10.8752C45.6995 9.691 43.4037 10.8268 43.4037 12.8327V13.0743C43.4037 15.9018 41.3737 18.5118 38.5462 18.8018C35.2837 19.1402 32.5287 16.5785 32.5287 13.3885V10.8752C32.5287 9.546 31.4412 8.4585 30.112 8.4585H27.8887C26.5595 8.4585 25.472 9.546 25.472 10.8752V13.3885C25.472 15.2977 24.4812 16.9893 22.9828 17.9318C22.7653 18.0768 22.5237 18.1977 22.282 18.3185C22.0645 18.4393 21.8228 18.536 21.557 18.6085C21.267 18.7052 20.9528 18.7777 20.6145 18.8018C20.2278 18.8502 19.8412 18.8502 19.4545 18.8018C19.1162 18.7777 18.802 18.7052 18.512 18.6085C18.2703 18.536 18.0287 18.4393 17.787 18.3185C17.5453 18.1977 17.3037 18.0768 17.0862 17.9318C15.5637 16.8685 14.597 15.0318 14.597 13.0743V12.8327C14.597 10.9718 12.6153 9.86016 11.0445 10.6577C11.0203 10.6818 10.9962 10.6818 10.972 10.706C10.8753 10.7543 10.8028 10.8027 10.7062 10.8752C10.6337 10.9477 10.537 10.996 10.4645 11.0685C9.78783 11.6002 9.18366 12.2043 8.67616 12.8568C8.41033 13.1468 8.19283 13.461 7.99949 13.7752C7.97533 13.7993 7.95116 13.8235 7.92699 13.8718C7.70949 14.186 7.51616 14.5485 7.34699 14.8868C7.29866 14.9352 7.27449 14.9593 7.27449 15.0077C7.12949 15.2977 6.98449 15.5877 6.88783 15.9018C6.81533 16.0227 6.79116 16.1193 6.74283 16.2402C6.59783 16.6027 6.50116 16.9652 6.40449 17.3277C6.30783 17.666 6.23533 18.0285 6.18699 18.391C6.13866 18.6568 6.11449 18.9227 6.09033 19.2127C6.06616 19.551 6.04199 19.8893 6.04199 20.2277V41.3977C6.04199 47.8985 11.3103 53.1668 17.8112 53.1668H40.1895C46.6903 53.1668 51.9587 47.8985 51.9587 41.3977V20.2277C51.9587 16.3852 50.122 13.026 47.2945 10.8752Z" fill="url(#paint5_radial_10_5504)" fill-opacity="0.75"/>
<path d="M20.2364 41V39.0864C21.9975 37.3531 23.1553 36.1675 23.71 35.5296C25.4295 33.5605 26.2892 31.9035 26.2892 30.5584C26.2892 29.9621 26.1297 29.4976 25.8108 29.1648C25.4919 28.832 25.0343 28.6656 24.438 28.6656C23.9249 28.6656 23.4812 28.8389 23.1068 29.1856C22.7463 29.5184 22.4897 29.9968 22.3372 30.6208L20.3404 29.7264C20.5345 28.6587 21.0199 27.8197 21.7964 27.2096C22.5868 26.5856 23.5575 26.2736 24.7084 26.2736C26.0119 26.2736 27.0241 26.648 27.7452 27.3968C28.4663 28.1456 28.8268 29.04 28.8268 30.08C28.8268 30.8427 28.6673 31.64 28.3484 32.472C28.0295 33.2901 27.662 34.0043 27.246 34.6144C26.83 35.2245 26.3239 35.8485 25.7276 36.4864C25.1452 37.1243 24.6876 37.5957 24.3548 37.9008C24.0359 38.192 23.6961 38.4832 23.3356 38.7744H29.3884V41H20.2364ZM30.8322 29.1856L34.5554 26.3984H36.2818V41H33.8898V29.8096L32.101 31.1616L30.8322 29.1856Z" fill="#070707"/>
<defs>
<linearGradient id="paint0_linear_10_5504" x1="29.0003" y1="3.021" x2="29.0003" y2="53.1668" gradientUnits="userSpaceOnUse">
<stop stop-color="#F0D68C"/>
<stop offset="1" stop-color="#CCB36E"/>
</linearGradient>
<radialGradient id="paint1_radial_10_5504" cx="0" cy="0" r="1" gradientUnits="userSpaceOnUse" gradientTransform="translate(29.0003 3.021) rotate(90) scale(50.1458 18.3505)">
<stop stop-color="white"/>
<stop offset="1" stop-color="white" stop-opacity="0"/>
</radialGradient>
<linearGradient id="paint2_linear_10_5504" x1="29.0003" y1="3.021" x2="29.0003" y2="53.1668" gradientUnits="userSpaceOnUse">
<stop stop-color="#F0D68C"/>
<stop offset="1" stop-color="#CCB36E"/>
</linearGradient>
<radialGradient id="paint3_radial_10_5504" cx="0" cy="0" r="1" gradientUnits="userSpaceOnUse" gradientTransform="translate(29.0003 3.021) rotate(90) scale(50.1458 18.3505)">
<stop stop-color="white"/>
<stop offset="1" stop-color="white" stop-opacity="0"/>
</radialGradient>
<linearGradient id="paint4_linear_10_5504" x1="29.0003" y1="3.021" x2="29.0003" y2="53.1668" gradientUnits="userSpaceOnUse">
<stop stop-color="#F0D68C"/>
<stop offset="1" stop-color="#CCB36E"/>
</linearGradient>
<radialGradient id="paint5_radial_10_5504" cx="0" cy="0" r="1" gradientUnits="userSpaceOnUse" gradientTransform="translate(29.0003 3.021) rotate(90) scale(50.1458 18.3505)">
<stop stop-color="white"/>
<stop offset="1" stop-color="white" stop-opacity="0"/>
</radialGradient>
</defs>
</svg>
