<svg width="35" height="35" viewBox="0 0 35 35" fill="none" xmlns="http://www.w3.org/2000/svg">
                          <path
                            d="M16.1046 29.949C8.34547 29.949 2.04297 23.6465 2.04297 15.8873C2.04297 8.12819 8.34547 1.82568 16.1046 1.82568C23.8638 1.82568 30.1663 8.12819 30.1663 15.8873C30.1663 23.6465 23.8638 29.949 16.1046 29.949ZM16.1046 3.98901C9.54251 3.98901 4.2063 9.32523 4.2063 15.8873C4.2063 22.4494 9.54251 27.7856 16.1046 27.7856C22.6667 27.7856 28.0029 22.4494 28.0029 15.8873C28.0029 9.32523 22.6667 3.98901 16.1046 3.98901Z"
                            fill="white" />
                          <path
                            d="M19.7107 16.9656H12.4996C11.9083 16.9656 11.418 16.4752 11.418 15.8839C11.418 15.2926 11.9083 14.8022 12.4996 14.8022H19.7107C20.302 14.8022 20.7924 15.2926 20.7924 15.8839C20.7924 16.4752 20.302 16.9656 19.7107 16.9656Z"
                            fill="white" />
                          <path
                            d="M16.1012 20.5712C15.5099 20.5712 15.0195 20.0809 15.0195 19.4895V12.2784C15.0195 11.6871 15.5099 11.1968 16.1012 11.1968C16.6925 11.1968 17.1829 11.6871 17.1829 12.2784V19.4895C17.1829 20.0809 16.6925 20.5712 16.1012 20.5712Z"
                            fill="white" />
                          <path
                            d="M29.3116 32.8902C29.1962 32.8902 29.0808 32.8757 28.9799 32.8613C28.302 32.7748 27.0762 32.3133 26.3839 30.2509C26.0233 29.1692 26.1531 28.0876 26.7444 27.2655C27.3358 26.4434 28.3309 25.9819 29.4702 25.9819C30.9413 25.9819 32.0951 26.5444 32.6143 27.5395C33.1335 28.5347 32.9893 29.8038 32.1672 31.0297C31.1432 32.5729 30.0327 32.8902 29.3116 32.8902ZM28.4463 29.5731C28.6914 30.323 29.0376 30.698 29.2683 30.7268C29.4991 30.7557 29.9317 30.4817 30.3788 29.8327C30.7971 29.2125 30.8259 28.7654 30.725 28.5635C30.624 28.3616 30.2202 28.1453 29.4702 28.1453C29.0231 28.1453 28.6914 28.2895 28.5039 28.5347C28.3309 28.7798 28.302 29.1548 28.4463 29.5731Z"
                            fill="white" />
                        </svg>