                          <svg viewBox="0 0 35 35" fill="none" xmlns="http://www.w3.org/2000/svg">
                            <mask id="path-1-inside-1_1_752" fill="white">
                              <path fill-rule="evenodd" clip-rule="evenodd"
                                d="M12.9719 0.551038C10.8914 0.883566 9.2096 2.39531 8.64136 4.44361C8.55374 4.7595 8.52493 5.09648 8.52683 5.78303C8.52919 6.60573 8.54824 6.75781 8.71195 7.25729C8.81233 7.56361 8.94997 7.92366 9.01781 8.05732C9.08571 8.19106 9.14124 8.31634 9.14124 8.3358C9.14124 8.35526 8.07043 8.37118 6.76166 8.37118C4.60628 8.37118 4.33441 8.38337 3.8763 8.50059C3.13663 8.68995 2.63426 8.9808 2.06706 9.54836C1.49986 10.1159 1.20919 10.6186 1.01995 11.3588C0.899399 11.8305 0.890625 12.0933 0.890625 15.2288V18.5927H2.20025H3.50987V24.5776C3.50987 30.3231 3.51504 30.5827 3.63919 31.0685C3.82843 31.8087 4.1191 32.3114 4.6863 32.8789C5.2535 33.4465 5.75587 33.7373 6.49554 33.9267C6.98907 34.053 7.25977 34.0561 17.6538 34.0561C28.0478 34.0561 28.3185 34.053 28.812 33.9267C29.5517 33.7373 30.0541 33.4465 30.6213 32.8789C31.1885 32.3114 31.4791 31.8087 31.6684 31.0685C31.7925 30.5827 31.7977 30.3231 31.7977 24.5776V18.5927H33.1073H34.4169V15.2288C34.4169 12.0933 34.4082 11.8305 34.2876 11.3588C34.0984 10.6186 33.8077 10.1159 33.2405 9.54836C32.6733 8.9808 32.1709 8.68995 31.4313 8.50059C30.973 8.38337 30.7013 8.37118 28.5389 8.37118C26.6541 8.37118 26.1599 8.35395 26.1883 8.28928C26.7007 7.12507 26.7889 6.73868 26.7823 5.68475C26.7775 4.90398 26.7555 4.73486 26.595 4.24325C26.3823 3.59201 26.2423 3.30162 25.8906 2.78222C25.2129 1.78156 24.1028 0.998558 22.8885 0.664654C22.3141 0.506744 20.9217 0.49934 20.3712 0.651287C19.3854 0.923403 18.5894 1.35946 17.9641 1.96974L17.6524 2.27402L17.342 1.97216C16.7154 1.3626 15.9138 0.919931 14.97 0.66223C14.607 0.563094 13.3381 0.492526 12.9719 0.551038ZM14.8007 3.37966C15.3913 3.65623 15.7738 4.03259 16.0668 4.62557L16.3114 5.12046L16.3329 6.75093L16.3543 8.38133L14.7286 8.35991L13.1028 8.33842L12.6772 8.13464C12.0536 7.83605 11.6771 7.47031 11.3854 6.87968C11.1518 6.40674 11.1384 6.34548 11.1384 5.75368C11.1384 5.1869 11.158 5.08646 11.3457 4.69011C11.6088 4.13435 11.9834 3.72752 12.472 3.46693C12.9878 3.19187 13.27 3.12962 13.8722 3.15832C14.2652 3.17706 14.4745 3.22692 14.8007 3.37966ZM22.6584 3.37966C23.2493 3.65636 23.6316 4.03259 23.9246 4.6259C24.1557 5.09373 24.1691 5.15565 24.1691 5.75027C24.1691 6.34489 24.1557 6.40681 23.9246 6.87464C23.63 7.47103 23.2509 7.84248 22.6421 8.13104L22.2047 8.33842L20.579 8.35991L18.9533 8.38133L18.9747 6.7546L18.9961 5.1278L19.2034 4.69011C19.4665 4.13435 19.8411 3.72752 20.3297 3.46693C20.8455 3.19187 21.1277 3.12962 21.7299 3.15832C22.1229 3.17706 22.3323 3.22692 22.6584 3.37966ZM16.3442 13.482V15.9718H9.92701H3.50987L3.51026 14.0553C3.51046 12.9082 3.53842 12.0384 3.58 11.8888C3.6648 11.5832 4.08309 11.1503 4.37494 11.0661C4.50289 11.0291 6.97676 11.0015 10.4672 10.998L16.3442 10.9921V13.482ZM31.2133 11.2214C31.7489 11.6 31.7623 11.6645 31.784 13.957L31.8031 15.9718H25.3832H18.9634V13.4806V10.9894L24.9493 11.0072L30.9352 11.0249L31.2133 11.2214ZM16.3442 25.0153V31.4377L11.7114 31.4201C7.15749 31.4028 7.07413 31.4001 6.81666 31.2656C6.6726 31.1903 6.46634 31.0035 6.3583 30.8504L6.16185 30.5722L6.14417 24.5824L6.12643 18.5927H11.2353H16.3442V25.0153ZM29.1785 24.433C29.1785 28.8548 29.1589 30.3385 29.0982 30.5415C28.9954 30.8847 28.6283 31.2521 28.2853 31.3549C28.0849 31.4149 26.8754 31.4352 23.4904 31.4352H18.9634V25.014V18.5927H24.0709H29.1785V24.433Z" />
                            </mask>
                            <path fill-rule="evenodd" clip-rule="evenodd"
                              d="M12.9719 0.551038C10.8914 0.883566 9.2096 2.39531 8.64136 4.44361C8.55374 4.7595 8.52493 5.09648 8.52683 5.78303C8.52919 6.60573 8.54824 6.75781 8.71195 7.25729C8.81233 7.56361 8.94997 7.92366 9.01781 8.05732C9.08571 8.19106 9.14124 8.31634 9.14124 8.3358C9.14124 8.35526 8.07043 8.37118 6.76166 8.37118C4.60628 8.37118 4.33441 8.38337 3.8763 8.50059C3.13663 8.68995 2.63426 8.9808 2.06706 9.54836C1.49986 10.1159 1.20919 10.6186 1.01995 11.3588C0.899399 11.8305 0.890625 12.0933 0.890625 15.2288V18.5927H2.20025H3.50987V24.5776C3.50987 30.3231 3.51504 30.5827 3.63919 31.0685C3.82843 31.8087 4.1191 32.3114 4.6863 32.8789C5.2535 33.4465 5.75587 33.7373 6.49554 33.9267C6.98907 34.053 7.25977 34.0561 17.6538 34.0561C28.0478 34.0561 28.3185 34.053 28.812 33.9267C29.5517 33.7373 30.0541 33.4465 30.6213 32.8789C31.1885 32.3114 31.4791 31.8087 31.6684 31.0685C31.7925 30.5827 31.7977 30.3231 31.7977 24.5776V18.5927H33.1073H34.4169V15.2288C34.4169 12.0933 34.4082 11.8305 34.2876 11.3588C34.0984 10.6186 33.8077 10.1159 33.2405 9.54836C32.6733 8.9808 32.1709 8.68995 31.4313 8.50059C30.973 8.38337 30.7013 8.37118 28.5389 8.37118C26.6541 8.37118 26.1599 8.35395 26.1883 8.28928C26.7007 7.12507 26.7889 6.73868 26.7823 5.68475C26.7775 4.90398 26.7555 4.73486 26.595 4.24325C26.3823 3.59201 26.2423 3.30162 25.8906 2.78222C25.2129 1.78156 24.1028 0.998558 22.8885 0.664654C22.3141 0.506744 20.9217 0.49934 20.3712 0.651287C19.3854 0.923403 18.5894 1.35946 17.9641 1.96974L17.6524 2.27402L17.342 1.97216C16.7154 1.3626 15.9138 0.919931 14.97 0.66223C14.607 0.563094 13.3381 0.492526 12.9719 0.551038ZM14.8007 3.37966C15.3913 3.65623 15.7738 4.03259 16.0668 4.62557L16.3114 5.12046L16.3329 6.75093L16.3543 8.38133L14.7286 8.35991L13.1028 8.33842L12.6772 8.13464C12.0536 7.83605 11.6771 7.47031 11.3854 6.87968C11.1518 6.40674 11.1384 6.34548 11.1384 5.75368C11.1384 5.1869 11.158 5.08646 11.3457 4.69011C11.6088 4.13435 11.9834 3.72752 12.472 3.46693C12.9878 3.19187 13.27 3.12962 13.8722 3.15832C14.2652 3.17706 14.4745 3.22692 14.8007 3.37966ZM22.6584 3.37966C23.2493 3.65636 23.6316 4.03259 23.9246 4.6259C24.1557 5.09373 24.1691 5.15565 24.1691 5.75027C24.1691 6.34489 24.1557 6.40681 23.9246 6.87464C23.63 7.47103 23.2509 7.84248 22.6421 8.13104L22.2047 8.33842L20.579 8.35991L18.9533 8.38133L18.9747 6.7546L18.9961 5.1278L19.2034 4.69011C19.4665 4.13435 19.8411 3.72752 20.3297 3.46693C20.8455 3.19187 21.1277 3.12962 21.7299 3.15832C22.1229 3.17706 22.3323 3.22692 22.6584 3.37966ZM16.3442 13.482V15.9718H9.92701H3.50987L3.51026 14.0553C3.51046 12.9082 3.53842 12.0384 3.58 11.8888C3.6648 11.5832 4.08309 11.1503 4.37494 11.0661C4.50289 11.0291 6.97676 11.0015 10.4672 10.998L16.3442 10.9921V13.482ZM31.2133 11.2214C31.7489 11.6 31.7623 11.6645 31.784 13.957L31.8031 15.9718H25.3832H18.9634V13.4806V10.9894L24.9493 11.0072L30.9352 11.0249L31.2133 11.2214ZM16.3442 25.0153V31.4377L11.7114 31.4201C7.15749 31.4028 7.07413 31.4001 6.81666 31.2656C6.6726 31.1903 6.46634 31.0035 6.3583 30.8504L6.16185 30.5722L6.14417 24.5824L6.12643 18.5927H11.2353H16.3442V25.0153ZM29.1785 24.433C29.1785 28.8548 29.1589 30.3385 29.0982 30.5415C28.9954 30.8847 28.6283 31.2521 28.2853 31.3549C28.0849 31.4149 26.8754 31.4352 23.4904 31.4352H18.9634V25.014V18.5927H24.0709H29.1785V24.433Z"
                              fill="black" />
                            <path fill-rule="evenodd" clip-rule="evenodd"
                              d="M12.9719 0.551038C10.8914 0.883566 9.2096 2.39531 8.64136 4.44361C8.55374 4.7595 8.52493 5.09648 8.52683 5.78303C8.52919 6.60573 8.54824 6.75781 8.71195 7.25729C8.81233 7.56361 8.94997 7.92366 9.01781 8.05732C9.08571 8.19106 9.14124 8.31634 9.14124 8.3358C9.14124 8.35526 8.07043 8.37118 6.76166 8.37118C4.60628 8.37118 4.33441 8.38337 3.8763 8.50059C3.13663 8.68995 2.63426 8.9808 2.06706 9.54836C1.49986 10.1159 1.20919 10.6186 1.01995 11.3588C0.899399 11.8305 0.890625 12.0933 0.890625 15.2288V18.5927H2.20025H3.50987V24.5776C3.50987 30.3231 3.51504 30.5827 3.63919 31.0685C3.82843 31.8087 4.1191 32.3114 4.6863 32.8789C5.2535 33.4465 5.75587 33.7373 6.49554 33.9267C6.98907 34.053 7.25977 34.0561 17.6538 34.0561C28.0478 34.0561 28.3185 34.053 28.812 33.9267C29.5517 33.7373 30.0541 33.4465 30.6213 32.8789C31.1885 32.3114 31.4791 31.8087 31.6684 31.0685C31.7925 30.5827 31.7977 30.3231 31.7977 24.5776V18.5927H33.1073H34.4169V15.2288C34.4169 12.0933 34.4082 11.8305 34.2876 11.3588C34.0984 10.6186 33.8077 10.1159 33.2405 9.54836C32.6733 8.9808 32.1709 8.68995 31.4313 8.50059C30.973 8.38337 30.7013 8.37118 28.5389 8.37118C26.6541 8.37118 26.1599 8.35395 26.1883 8.28928C26.7007 7.12507 26.7889 6.73868 26.7823 5.68475C26.7775 4.90398 26.7555 4.73486 26.595 4.24325C26.3823 3.59201 26.2423 3.30162 25.8906 2.78222C25.2129 1.78156 24.1028 0.998558 22.8885 0.664654C22.3141 0.506744 20.9217 0.49934 20.3712 0.651287C19.3854 0.923403 18.5894 1.35946 17.9641 1.96974L17.6524 2.27402L17.342 1.97216C16.7154 1.3626 15.9138 0.919931 14.97 0.66223C14.607 0.563094 13.3381 0.492526 12.9719 0.551038ZM14.8007 3.37966C15.3913 3.65623 15.7738 4.03259 16.0668 4.62557L16.3114 5.12046L16.3329 6.75093L16.3543 8.38133L14.7286 8.35991L13.1028 8.33842L12.6772 8.13464C12.0536 7.83605 11.6771 7.47031 11.3854 6.87968C11.1518 6.40674 11.1384 6.34548 11.1384 5.75368C11.1384 5.1869 11.158 5.08646 11.3457 4.69011C11.6088 4.13435 11.9834 3.72752 12.472 3.46693C12.9878 3.19187 13.27 3.12962 13.8722 3.15832C14.2652 3.17706 14.4745 3.22692 14.8007 3.37966ZM22.6584 3.37966C23.2493 3.65636 23.6316 4.03259 23.9246 4.6259C24.1557 5.09373 24.1691 5.15565 24.1691 5.75027C24.1691 6.34489 24.1557 6.40681 23.9246 6.87464C23.63 7.47103 23.2509 7.84248 22.6421 8.13104L22.2047 8.33842L20.579 8.35991L18.9533 8.38133L18.9747 6.7546L18.9961 5.1278L19.2034 4.69011C19.4665 4.13435 19.8411 3.72752 20.3297 3.46693C20.8455 3.19187 21.1277 3.12962 21.7299 3.15832C22.1229 3.17706 22.3323 3.22692 22.6584 3.37966ZM16.3442 13.482V15.9718H9.92701H3.50987L3.51026 14.0553C3.51046 12.9082 3.53842 12.0384 3.58 11.8888C3.6648 11.5832 4.08309 11.1503 4.37494 11.0661C4.50289 11.0291 6.97676 11.0015 10.4672 10.998L16.3442 10.9921V13.482ZM31.2133 11.2214C31.7489 11.6 31.7623 11.6645 31.784 13.957L31.8031 15.9718H25.3832H18.9634V13.4806V10.9894L24.9493 11.0072L30.9352 11.0249L31.2133 11.2214ZM16.3442 25.0153V31.4377L11.7114 31.4201C7.15749 31.4028 7.07413 31.4001 6.81666 31.2656C6.6726 31.1903 6.46634 31.0035 6.3583 30.8504L6.16185 30.5722L6.14417 24.5824L6.12643 18.5927H11.2353H16.3442V25.0153ZM29.1785 24.433C29.1785 28.8548 29.1589 30.3385 29.0982 30.5415C28.9954 30.8847 28.6283 31.2521 28.2853 31.3549C28.0849 31.4149 26.8754 31.4352 23.4904 31.4352H18.9634V25.014V18.5927H24.0709H29.1785V24.433Z"
                              fill="url(#paint0_linear_1_752)" />
                            <path fill-rule="evenodd" clip-rule="evenodd"
                              d="M12.9719 0.551038C10.8914 0.883566 9.2096 2.39531 8.64136 4.44361C8.55374 4.7595 8.52493 5.09648 8.52683 5.78303C8.52919 6.60573 8.54824 6.75781 8.71195 7.25729C8.81233 7.56361 8.94997 7.92366 9.01781 8.05732C9.08571 8.19106 9.14124 8.31634 9.14124 8.3358C9.14124 8.35526 8.07043 8.37118 6.76166 8.37118C4.60628 8.37118 4.33441 8.38337 3.8763 8.50059C3.13663 8.68995 2.63426 8.9808 2.06706 9.54836C1.49986 10.1159 1.20919 10.6186 1.01995 11.3588C0.899399 11.8305 0.890625 12.0933 0.890625 15.2288V18.5927H2.20025H3.50987V24.5776C3.50987 30.3231 3.51504 30.5827 3.63919 31.0685C3.82843 31.8087 4.1191 32.3114 4.6863 32.8789C5.2535 33.4465 5.75587 33.7373 6.49554 33.9267C6.98907 34.053 7.25977 34.0561 17.6538 34.0561C28.0478 34.0561 28.3185 34.053 28.812 33.9267C29.5517 33.7373 30.0541 33.4465 30.6213 32.8789C31.1885 32.3114 31.4791 31.8087 31.6684 31.0685C31.7925 30.5827 31.7977 30.3231 31.7977 24.5776V18.5927H33.1073H34.4169V15.2288C34.4169 12.0933 34.4082 11.8305 34.2876 11.3588C34.0984 10.6186 33.8077 10.1159 33.2405 9.54836C32.6733 8.9808 32.1709 8.68995 31.4313 8.50059C30.973 8.38337 30.7013 8.37118 28.5389 8.37118C26.6541 8.37118 26.1599 8.35395 26.1883 8.28928C26.7007 7.12507 26.7889 6.73868 26.7823 5.68475C26.7775 4.90398 26.7555 4.73486 26.595 4.24325C26.3823 3.59201 26.2423 3.30162 25.8906 2.78222C25.2129 1.78156 24.1028 0.998558 22.8885 0.664654C22.3141 0.506744 20.9217 0.49934 20.3712 0.651287C19.3854 0.923403 18.5894 1.35946 17.9641 1.96974L17.6524 2.27402L17.342 1.97216C16.7154 1.3626 15.9138 0.919931 14.97 0.66223C14.607 0.563094 13.3381 0.492526 12.9719 0.551038ZM14.8007 3.37966C15.3913 3.65623 15.7738 4.03259 16.0668 4.62557L16.3114 5.12046L16.3329 6.75093L16.3543 8.38133L14.7286 8.35991L13.1028 8.33842L12.6772 8.13464C12.0536 7.83605 11.6771 7.47031 11.3854 6.87968C11.1518 6.40674 11.1384 6.34548 11.1384 5.75368C11.1384 5.1869 11.158 5.08646 11.3457 4.69011C11.6088 4.13435 11.9834 3.72752 12.472 3.46693C12.9878 3.19187 13.27 3.12962 13.8722 3.15832C14.2652 3.17706 14.4745 3.22692 14.8007 3.37966ZM22.6584 3.37966C23.2493 3.65636 23.6316 4.03259 23.9246 4.6259C24.1557 5.09373 24.1691 5.15565 24.1691 5.75027C24.1691 6.34489 24.1557 6.40681 23.9246 6.87464C23.63 7.47103 23.2509 7.84248 22.6421 8.13104L22.2047 8.33842L20.579 8.35991L18.9533 8.38133L18.9747 6.7546L18.9961 5.1278L19.2034 4.69011C19.4665 4.13435 19.8411 3.72752 20.3297 3.46693C20.8455 3.19187 21.1277 3.12962 21.7299 3.15832C22.1229 3.17706 22.3323 3.22692 22.6584 3.37966ZM16.3442 13.482V15.9718H9.92701H3.50987L3.51026 14.0553C3.51046 12.9082 3.53842 12.0384 3.58 11.8888C3.6648 11.5832 4.08309 11.1503 4.37494 11.0661C4.50289 11.0291 6.97676 11.0015 10.4672 10.998L16.3442 10.9921V13.482ZM31.2133 11.2214C31.7489 11.6 31.7623 11.6645 31.784 13.957L31.8031 15.9718H25.3832H18.9634V13.4806V10.9894L24.9493 11.0072L30.9352 11.0249L31.2133 11.2214ZM16.3442 25.0153V31.4377L11.7114 31.4201C7.15749 31.4028 7.07413 31.4001 6.81666 31.2656C6.6726 31.1903 6.46634 31.0035 6.3583 30.8504L6.16185 30.5722L6.14417 24.5824L6.12643 18.5927H11.2353H16.3442V25.0153ZM29.1785 24.433C29.1785 28.8548 29.1589 30.3385 29.0982 30.5415C28.9954 30.8847 28.6283 31.2521 28.2853 31.3549C28.0849 31.4149 26.8754 31.4352 23.4904 31.4352H18.9634V25.014V18.5927H24.0709H29.1785V24.433Z"
                              fill="url(#paint1_radial_1_752)" fill-opacity="0.75" />
                            <path fill-rule="evenodd" clip-rule="evenodd"
                              d="M12.9719 0.551038C10.8914 0.883566 9.2096 2.39531 8.64136 4.44361C8.55374 4.7595 8.52493 5.09648 8.52683 5.78303C8.52919 6.60573 8.54824 6.75781 8.71195 7.25729C8.81233 7.56361 8.94997 7.92366 9.01781 8.05732C9.08571 8.19106 9.14124 8.31634 9.14124 8.3358C9.14124 8.35526 8.07043 8.37118 6.76166 8.37118C4.60628 8.37118 4.33441 8.38337 3.8763 8.50059C3.13663 8.68995 2.63426 8.9808 2.06706 9.54836C1.49986 10.1159 1.20919 10.6186 1.01995 11.3588C0.899399 11.8305 0.890625 12.0933 0.890625 15.2288V18.5927H2.20025H3.50987V24.5776C3.50987 30.3231 3.51504 30.5827 3.63919 31.0685C3.82843 31.8087 4.1191 32.3114 4.6863 32.8789C5.2535 33.4465 5.75587 33.7373 6.49554 33.9267C6.98907 34.053 7.25977 34.0561 17.6538 34.0561C28.0478 34.0561 28.3185 34.053 28.812 33.9267C29.5517 33.7373 30.0541 33.4465 30.6213 32.8789C31.1885 32.3114 31.4791 31.8087 31.6684 31.0685C31.7925 30.5827 31.7977 30.3231 31.7977 24.5776V18.5927H33.1073H34.4169V15.2288C34.4169 12.0933 34.4082 11.8305 34.2876 11.3588C34.0984 10.6186 33.8077 10.1159 33.2405 9.54836C32.6733 8.9808 32.1709 8.68995 31.4313 8.50059C30.973 8.38337 30.7013 8.37118 28.5389 8.37118C26.6541 8.37118 26.1599 8.35395 26.1883 8.28928C26.7007 7.12507 26.7889 6.73868 26.7823 5.68475C26.7775 4.90398 26.7555 4.73486 26.595 4.24325C26.3823 3.59201 26.2423 3.30162 25.8906 2.78222C25.2129 1.78156 24.1028 0.998558 22.8885 0.664654C22.3141 0.506744 20.9217 0.49934 20.3712 0.651287C19.3854 0.923403 18.5894 1.35946 17.9641 1.96974L17.6524 2.27402L17.342 1.97216C16.7154 1.3626 15.9138 0.919931 14.97 0.66223C14.607 0.563094 13.3381 0.492526 12.9719 0.551038ZM14.8007 3.37966C15.3913 3.65623 15.7738 4.03259 16.0668 4.62557L16.3114 5.12046L16.3329 6.75093L16.3543 8.38133L14.7286 8.35991L13.1028 8.33842L12.6772 8.13464C12.0536 7.83605 11.6771 7.47031 11.3854 6.87968C11.1518 6.40674 11.1384 6.34548 11.1384 5.75368C11.1384 5.1869 11.158 5.08646 11.3457 4.69011C11.6088 4.13435 11.9834 3.72752 12.472 3.46693C12.9878 3.19187 13.27 3.12962 13.8722 3.15832C14.2652 3.17706 14.4745 3.22692 14.8007 3.37966ZM22.6584 3.37966C23.2493 3.65636 23.6316 4.03259 23.9246 4.6259C24.1557 5.09373 24.1691 5.15565 24.1691 5.75027C24.1691 6.34489 24.1557 6.40681 23.9246 6.87464C23.63 7.47103 23.2509 7.84248 22.6421 8.13104L22.2047 8.33842L20.579 8.35991L18.9533 8.38133L18.9747 6.7546L18.9961 5.1278L19.2034 4.69011C19.4665 4.13435 19.8411 3.72752 20.3297 3.46693C20.8455 3.19187 21.1277 3.12962 21.7299 3.15832C22.1229 3.17706 22.3323 3.22692 22.6584 3.37966ZM16.3442 13.482V15.9718H9.92701H3.50987L3.51026 14.0553C3.51046 12.9082 3.53842 12.0384 3.58 11.8888C3.6648 11.5832 4.08309 11.1503 4.37494 11.0661C4.50289 11.0291 6.97676 11.0015 10.4672 10.998L16.3442 10.9921V13.482ZM31.2133 11.2214C31.7489 11.6 31.7623 11.6645 31.784 13.957L31.8031 15.9718H25.3832H18.9634V13.4806V10.9894L24.9493 11.0072L30.9352 11.0249L31.2133 11.2214ZM16.3442 25.0153V31.4377L11.7114 31.4201C7.15749 31.4028 7.07413 31.4001 6.81666 31.2656C6.6726 31.1903 6.46634 31.0035 6.3583 30.8504L6.16185 30.5722L6.14417 24.5824L6.12643 18.5927H11.2353H16.3442V25.0153ZM29.1785 24.433C29.1785 28.8548 29.1589 30.3385 29.0982 30.5415C28.9954 30.8847 28.6283 31.2521 28.2853 31.3549C28.0849 31.4149 26.8754 31.4352 23.4904 31.4352H18.9634V25.014V18.5927H24.0709H29.1785V24.433Z"
                              stroke="url(#paint2_radial_1_752)" stroke-width="0.205798"
                              mask="url(#path-1-inside-1_1_752)" />
                            <defs>
                              <linearGradient id="paint0_linear_1_752" x1="17.6538" y1="0.529785" x2="17.6538"
                                y2="34.0561" gradientUnits="userSpaceOnUse">
                                <stop stop-color="#F0D68C" />
                                <stop offset="1" stop-color="#CCB36E" />
                              </linearGradient>
                              <radialGradient id="paint1_radial_1_752" cx="0" cy="0" r="1"
                                gradientUnits="userSpaceOnUse"
                                gradientTransform="translate(17.6538 0.529785) rotate(90) scale(33.5263 13.3987)">
                                <stop stop-color="white" />
                                <stop offset="1" stop-color="white" stop-opacity="0" />
                              </radialGradient>
                              <radialGradient id="paint2_radial_1_752" cx="0" cy="0" r="1"
                                gradientUnits="userSpaceOnUse"
                                gradientTransform="translate(17.6538 17.2929) rotate(77.1797) scale(29.4615 19.9676)">
                                <stop stop-color="white" />
                                <stop offset="1" stop-color="white" stop-opacity="0" />
                              </radialGradient>
                            </defs>
                          </svg>